<svg xmlns="http://www.w3.org/2000/svg" viewBox="0 0 192.5 112.2"><defs><style>.cls-1{fill:#fdcf0b;}</style></defs><title>Asset 4</title><g id="Layer_2" data-name="Layer 2"><g id="Layer_1-2" data-name="Layer 1"><path class="cls-1" d="M155.52,79.34c-5.92-7.49-5.76-11.21.43-17.43V43.67l-20.33,5.59C123.76,52.53,111.94,55.94,100,59a16.9,16.9,0,0,1-8.24,0c-29-7.89-58-16-87-24C1.16,34-.13,32.44,0,29.59c.13-2.65,1.45-4,4.79-4.89C33.49,16.76,62.18,8.87,90.83.82A18.81,18.81,0,0,1,101.55.74q40.3,11.37,80.7,22.53c1.91.53,3.87.91,5.81,1.39,2.88.71,4.25,2.15,4.43,4.62.19,2.7-1.15,4.57-4.13,5.41-6.4,1.79-12.83,3.49-19.24,5.25-.8.22-1.55.6-2.54,1V61.78c5.32,5.38,7.1,9.49.44,17.63,1.22,7.37,2.46,15.08,3.78,22.76,1,5.79-.53,8.63-6.24,9.75a18.19,18.19,0,0,1-8.26-.44c-4.21-1.21-5.54-4.08-4.79-8.53Q153.52,91.16,155.52,79.34Z"/><path class="cls-1" d="M46.38,55.94,65.31,61.2c9,2.5,18,4.93,26.87,7.57a14.16,14.16,0,0,0,8.28,0c13.74-4,27.52-7.76,41.29-11.6,1.27-.36,2.56-.65,4.22-1.07.14,1.45.35,2.69.35,3.94,0,8.82-.28,17.66.12,26.47.3,6.57-2.77,10.74-7.89,13.92a54.35,54.35,0,0,1-17.62,6.71c-18.39,3.94-36.71,3.83-54.79-1.51a60.8,60.8,0,0,1-13.52-6.22c-4.56-2.69-6.77-6.88-6.56-12.55.34-9,.09-18,.1-27C46.16,58.76,46.29,57.62,46.38,55.94Z"/></g></g></svg>