<svg xmlns="http://www.w3.org/2000/svg" viewBox="0 0 46.62 93.53"><defs><style>.cls-1{fill:#2c2c2c;}</style></defs><title>Asset 9</title><g id="Layer_2" data-name="Layer 2"><g id="Layer_1-2" data-name="Layer 1"><g id="Layer_1-2-2" data-name="Layer 1-2"><path class="cls-1" d="M11.7,93.5c0-.77-.08-1.56-.08-2.34V46.53H.36C0,45-.14,33.92.19,31c1.86-.19,3.77-.06,5.67-.08s3.7,0,5.67,0c0-.72.08-1.29.08-1.85,0-4.37,0-8.75.05-13.13a16.64,16.64,0,0,1,2.77-9.09A14.57,14.57,0,0,1,23.59.91,32.79,32.79,0,0,1,30.06.05c4.89-.12,9.79,0,14.67,0,.51,0,1,.05,1.5.08.4,1.44.54,15.7.19,19.24a13.71,13.71,0,0,1-1.42.16H35.29c-3,.1-4.16,1-4.37,3.93-.21,2.61,0,5.21,0,8.07H46.25c.34,1.43-.51,12.36-1.14,15H31.62V91.19c0,.78-.05,1.57-.08,2.34Z"/></g></g></g></svg>