<svg xmlns="http://www.w3.org/2000/svg" viewBox="0 0 47.16 93.86"><defs><style>.cls-1{fill:#0197a6;}</style></defs><title>Asset 16</title><g id="Layer_2" data-name="Layer 2"><g id="Layer_1-2" data-name="Layer 1"><path class="cls-1" d="M11.84,93.86c0-.77-.08-1.55-.08-2.33q0-21.09,0-42.18V47.08H.37C0,45.52-.14,34.33.2,31.36c1.88-.19,3.81-.06,5.73-.08s3.75,0,5.74,0c0-.73.08-1.3.08-1.87,0-4.42,0-8.85.05-13.28a16.75,16.75,0,0,1,2.8-9.19,14.74,14.74,0,0,1,9.27-6A32.72,32.72,0,0,1,30.41.07c4.95-.12,9.9,0,14.84,0,.52,0,1,.05,1.52.08.4,1.45.54,15.88.19,19.46a13.21,13.21,0,0,1-1.44.16c-2.8,0-5.6,0-8.4,0-.45,0-.91,0-1.36,0-2.86.1-4,1-4.2,3.78-.2,2.5,0,5,0,7.75H46.75c.35,1.5-.54,13-1.2,15.77H31.47v2.31q0,21.09,0,42.18c0,.78-.05,1.56-.08,2.33Z"/></g></g></svg>