<svg xmlns="http://www.w3.org/2000/svg" viewBox="0 0 79.53 75.79"><defs><style>.cls-1{fill:#fdcf0b;}</style></defs><title>Asset 7</title><g id="Layer_2" data-name="Layer 2"><g id="Layer_1-2" data-name="Layer 1"><path class="cls-1" d="M59.2,53.24l1.24-2.64c-.11-.18-.2-.52-.43-.67a20.78,20.78,0,0,0-4.14-2.6,8.61,8.61,0,0,1-5.62-5.77c-1.57-5.15-3.09-10.31-4.51-15.5a16.1,16.1,0,0,1-.28-4c0-2.49,0-5,0-7.65H38.72V61.28L50,61.47l.23,14.32-2.33,0c-7.15,0-22.54,0-22.54,0v-3s12.59-.06,18.08-.06h3.5s.32-5.26.33-8.16L36,64.19l-.07-52.57H48.25s0,8.4.36,12.64l12.85,3.78c.79.24,1.58.47,2.35.77a8.06,8.06,0,0,1,5,5.17,9.25,9.25,0,0,0,3.39,4.83l2.13-1.18a15.15,15.15,0,0,1,5.17,5c-1.37,2.61-12.79,14-15.19,15.12C62.2,56.93,61.08,54.88,59.2,53.24ZM69.69,41.46C68.42,39.17,67.07,37,66,34.69a6,6,0,0,0-3.86-3.32c-2.47-.76-4.95-1.48-7.44-2.19a5.51,5.51,0,0,0-1.3,0,7.43,7.43,0,0,0,.58,1c1.1,1.23,2.22,2.45,3.11,3.44,4.13-.06,6.24,1.43,6.21,4.06a4.11,4.11,0,0,1-4,3.92c-2.66,0-3.91-1.78-4.07-5.56L50.1,30.66c1.22,4,2.1,7.41,3.33,10.66a6.7,6.7,0,0,0,2.69,2.83c2.23,1.41,4.62,2.57,7.08,3.91Zm4.62-.22c-2.08,2.12-3.93,3.92-5.69,5.8s-4,3.51-5.47,5.94l1.27.88L75.67,42.68ZM58.26,38.87l2.34-1.31-1.92-1.13Z"/><path class="cls-1" d="M21.07,14.37H14.18v12l-14,.19L0,.21,59.36,0V8.61l-2.6-.08s0-5.33-.06-5.4S56.52,3,56.44,3C39.33,2.93,3.35,3,3.35,3L3.11,23.7h7.82l.44-12,12.37-.05L24,64.48l-11.15.15.11,8.06,6.52.11,0,3-9.42,0,.09-14.4h11Z"/></g></g></svg>