<svg xmlns="http://www.w3.org/2000/svg" viewBox="0 0 41.8 57.77"><defs><style>.cls-1{fill:#fdcf0b;}</style></defs><title>Asset 8</title><g id="Layer_2" data-name="Layer 2"><g id="Layer_1-2" data-name="Layer 1"><path class="cls-1" d="M24.94,57.75H16.56a13.84,13.84,0,0,1-1.58,0,5.56,5.56,0,0,1-5.3-5.23,8.48,8.48,0,0,1,0-1.13c0-2.33,0-2.13-2.29-2.14-.68,0-1.36,0-2,0A5.59,5.59,0,0,1,.09,43.86c-.12-5-.12-10,0-14.94.07-3,2.45-5.21,5.61-5.45,1-.07,2,0,2.94,0,.63,0,1-.22,1-.91,0-1,.21-2.06-.76-2.9-.45-.38-.1-1,.52-1.16a1.66,1.66,0,0,1,.22,0c.66-.1,1.62,0,1.89-.34A4,4,0,0,0,11.82,16c0-2,.13-4.08,0-6.11a7.38,7.38,0,0,1,1.69-5.44C14.38,3.3,15.07,2,15.92.87S17.27-.3,18.14.92c1.26,1.78,2.5,3.59,3.63,5.47a4.38,4.38,0,0,1,.45,2.14c.05,2.87,0,5.74,0,8.61,0,1.09.19,1.24,1.11,1.27s1.2-.14,1.22-1.15c.05-2.87,0-5.73.1-8.6A38.46,38.46,0,0,1,25,4.37a2,2,0,0,1,2.35-1.85A1.88,1.88,0,0,1,29.09,4a9.81,9.81,0,0,1,.29,2.23c.05,3.32.06,6.64.09,10a8.33,8.33,0,0,0,.08,1.58.82.82,0,0,0,.55.55.85.85,0,0,0,.73-.33,8.38,8.38,0,0,0,.58-1.46C32.29,14,33.22,11.41,34,8.82c.63-2,1.57-3.62,3.84-3.95.79-.11.74-.88,1.17-1.24A1.44,1.44,0,0,1,40,3.29c.16,0,.44.49.4.7a3.31,3.31,0,0,0,.86,2.66,4.17,4.17,0,0,1,.2,3.9q-1.06,3.1-2.07,6.22c-.43,1.33-.42,1.34,1,1.66,1,.23,1.3.76.68,1.34-.82.76-.66,1.62-.66,2.49q0,13.92,0,27.85c0,.53,0,1.06,0,1.59-.12,3.82-2.26,6-6.12,6C31.13,57.8,28,57.75,24.94,57.75ZM38.62,36.89c0-5.14,0-10.28,0-15.41,0-1.28,0-1.32-1.25-1.33-2.94,0-5.89,0-8.83,0-1.31,0-1.34.05-1.36,1.47,0,2.71,0,5.43,0,8.15A6.61,6.61,0,0,1,26.79,32a2.68,2.68,0,0,1-2.68,1.68,2.62,2.62,0,0,1-2.32-2.4c-.07-.6,0-1.21-.07-1.81a10.1,10.1,0,0,0-.1-1.35c-.11-.53-.31-1.1-1-1.09s-1,.59-1.08,1.23,0,1.06,0,1.58c0,1.36.05,2.73,0,4.08a2.53,2.53,0,0,1-2.59,2.57A2.62,2.62,0,0,1,14.19,34a15.63,15.63,0,0,1,0-1.81c0-3.63,0-7.25,0-10.88,0-.86-.32-1.2-1.19-1.21-1.42,0-1.56.09-1.61,1.47,0,.3,0,.6,0,.9V50.81c0,.46,0,.91,0,1.36A3.87,3.87,0,0,0,15.31,56c.23,0,.45,0,.68,0H34.12a6.26,6.26,0,0,0,1.56-.16,3.69,3.69,0,0,0,2.91-3.35c.06-.6,0-1.21,0-1.81C38.63,46.1,38.62,41.49,38.62,36.89ZM15.87,27.17h0c0,1.8,0,3.61,0,5.42a4.62,4.62,0,0,0,.2,1.54,1.08,1.08,0,0,0,.87.53,1,1,0,0,0,.77-.63,8.17,8.17,0,0,0,.13-1.79c0-1.43-.07-2.87.07-4.29a2.73,2.73,0,0,1,2.78-2.71c1.49,0,2.44,1.08,2.56,2.86,0,.52,0,1,0,1.58A3.77,3.77,0,0,0,23.46,31c.18.36.71.91.88.85a3.05,3.05,0,0,0,1-1c.11-.15.06-.43.06-.66,0-2.94,0-5.88,0-8.81,0-1.16-.09-1.23-1.35-1.25-2.34,0-4.67,0-7,0-.83,0-1.23.25-1.21,1.16C15.9,23.25,15.87,25.21,15.87,27.17ZM9.64,36.49V32.42c0-.9,0-1.81,0-2.7,0-.32-.28-.86-.46-.87a19.36,19.36,0,0,0-3.14,0c-.27,0-.61.48-.7.79a7.51,7.51,0,0,0-.2,1.77q0,4.86,0,9.72c0,2.64.39,3,3,3h.23c1.18-.06,1.29-.12,1.31-1.31C9.66,40.71,9.64,38.6,9.64,36.49Zm-7.91-.1h0c0,2,.1,3.92,0,5.87-.21,3.6,2.06,5.55,5.17,5.25.3,0,.61,0,.91,0,1.6,0,1.9-.18,1.83-1-.1-1.2-1-.79-1.72-.87-.37,0-.76,0-1.13,0-2.2-.1-3-.78-3.3-2.9a12.21,12.21,0,0,1-.07-1.35c0-3.39,0-6.78,0-10.17a8.24,8.24,0,0,1,.18-1.79A2.68,2.68,0,0,1,6.37,27C7.2,27,8,27,8.86,27c.57,0,.75-.39.75-.9s-.16-.89-.74-.91c-.83,0-1.66,0-2.48,0-2.78.07-4.72,1.82-4.67,4.68C1.76,32,1.73,34.21,1.73,36.39ZM40,9.32c0-1.55-.48-2.33-1.36-2.63a1.93,1.93,0,0,0-2.3,1,12.68,12.68,0,0,0-.87,2.08c-1.07,3-.88,3.35,2.25,3.93a1,1,0,0,0,.86-.38C39.19,11.84,39.68,10.34,40,9.32Zm-19.53,4c0-1.27,0-2.54,0-3.81a1.11,1.11,0,0,0-.29-.8c-.71-.42-2.32.48-2.38,1.32s0,1.5,0,2.25c0,1.72,0,3.44,0,5.16,0,1,.69,1,1.4,1s1.34-.08,1.31-1.06C20.48,16,20.51,14.66,20.51,13.31Zm-7,0c0,1.36,0,2.71,0,4.06,0,.28.13.75.28.79a3.78,3.78,0,0,0,1.73.1c.24-.06.48-.71.49-1.1.05-2.25.05-4.51,0-6.77C16.07,9,16,9,14.55,8.73c-.69-.11-1,.06-1,.76Zm14.19-1.78h-.08c0-1.88,0-3.76,0-5.63a6.6,6.6,0,0,0-.21-1.32.41.41,0,0,0-.33-.24c-.19,0-.47.15-.51.29A5.27,5.27,0,0,0,26.41,6q-.06,5.4-.09,10.82a3.39,3.39,0,0,0,.09,1.11.86.86,0,0,0,.65.44.84.84,0,0,0,.61-.49,3.41,3.41,0,0,0,.08-1.11C27.76,15,27.75,13.28,27.75,11.55Zm7,6.86h0c.38,0,.75,0,1.12,0,1.11-.06,1.64-.68,1.82-2.09.12-1-.66-1-1.28-1.23-2.76-1-2.22-1.08-3.19,1.48-.11.28-.14.58-.26.85-.3.71,0,1,.67,1ZM17,7.26c.68-.07,1.43-.12,2.18-.23.53-.08.7-.56.29-1a1.91,1.91,0,0,0-1.1-.51c-.89-.07-1.79,0-2.69,0-.15,0-.37-.13-.43-.07-.35.35-.66.73-1,1.1a3.44,3.44,0,0,0,.87.49A17.38,17.38,0,0,0,17,7.26Zm.9-3.62-.83-1-.85.85c.19.15.38.4.58.42A3.81,3.81,0,0,0,17.94,3.64Z"/><path class="cls-1" d="M27.69,40.17A2.74,2.74,0,1,1,22.21,40a2.57,2.57,0,0,1,2.93-2.64A2.61,2.61,0,0,1,27.69,40.17ZM26.37,40c-.7-.41-1.08-.79-1.5-.83-.59-.07-.94.36-.88,1s.41,1,1,.88C25.41,40.93,25.73,40.5,26.37,40Z"/></g></g></svg>