<svg xmlns="http://www.w3.org/2000/svg" viewBox="0 0 91.54 91.54"><defs><style>.cls-1{fill:#fdcf0b;}.cls-2{fill:#fff;}</style></defs><title>Asset 12</title><g id="Layer_2" data-name="Layer 2"><g id="Layer_1-2" data-name="Layer 1"><path class="cls-1" d="M26.59,0h38c.49.09,1,.2,1.47.27,1.87.29,3.78.43,5.61.87C81,3.37,87.14,9,89.74,18.36A44.5,44.5,0,0,1,91.16,30c.07,9.62.07,19.24,0,28.86A54.68,54.68,0,0,1,90,71.68C87.78,81,82.12,87.14,72.78,89.74a44.45,44.45,0,0,1-11.64,1.42c-9.62.07-19.24.11-28.86,0a80.91,80.91,0,0,1-10.77-.78A24.06,24.06,0,0,1,7.57,83.7C3.64,79.8,1.64,75,.71,69.62.42,67.94.24,66.25,0,64.57v-38c.1-.55.21-1.1.3-1.66.27-1.8.43-3.63.83-5.4A24.12,24.12,0,0,1,7.25,7.78C11.18,3.72,16.1,1.65,21.56.71,23.23.42,24.91.23,26.59,0ZM82.66,45.68h.13c0-3.48,0-7,0-10.44A71.69,71.69,0,0,0,82,22.39C80.71,15.6,76.91,11,70,9.51a39.41,39.41,0,0,0-7.88-1Q48,8.33,33.87,8.43a78,78,0,0,0-11.33.77c-7,1.09-11.49,5.13-13.14,12.16a45.33,45.33,0,0,0-1,10C8.36,39.56,8.37,47.79,8.38,56a70.67,70.67,0,0,0,.78,12.67c1.27,7,5.21,11.55,12.26,13a39,39,0,0,0,7.69.89q14.14.21,28.28.11a75.27,75.27,0,0,0,11.33-.79c6.81-1.09,11.38-5,12.92-11.88a41.73,41.73,0,0,0,1-7.87C82.77,56.69,82.66,51.18,82.66,45.68Z"/><path class="cls-2" d="M0,64.57c.24,1.68.42,3.37.71,5.05C1.64,75,3.64,79.8,7.57,83.7a24.06,24.06,0,0,0,13.94,6.7,80.91,80.91,0,0,0,10.77.78c9.62.09,19.24,0,28.86,0a44.45,44.45,0,0,0,11.64-1.42c9.34-2.6,15-8.71,17.25-18.06a54.68,54.68,0,0,0,1.18-12.82c0-9.62,0-19.24,0-28.86a44.5,44.5,0,0,0-1.42-11.64C87.14,9,81,3.37,71.65,1.14,69.82.7,67.91.56,66,.27c-.49-.07-1-.18-1.47-.27h27V91.54H0Z"/><path class="cls-2" d="M26.59,0c-1.68.23-3.36.42-5,.71-5.46.94-10.38,3-14.31,7.07A24.12,24.12,0,0,0,1.13,19.53c-.4,1.77-.56,3.6-.83,5.4C.21,25.49.1,26,0,26.59V0Z"/><path class="cls-1" d="M45.68,22A23.56,23.56,0,1,1,22,45.43,23.6,23.6,0,0,1,45.68,22Zm15,23.68A15.06,15.06,0,1,0,45.41,60.63,15.07,15.07,0,0,0,60.63,45.7Z"/><path class="cls-1" d="M69.82,26.73a5.46,5.46,0,0,1-5.54-5.47,5.62,5.62,0,0,1,11.23,0A5.38,5.38,0,0,1,69.82,26.73Z"/></g></g></svg>