<svg xmlns="http://www.w3.org/2000/svg" viewBox="0 0 91.21 91.23"><defs><style>.cls-1{fill:#2c2c2c;}</style></defs><title>Asset 12</title><g id="Layer_2" data-name="Layer 2"><g id="Layer_1-2" data-name="Layer 1"><g id="Layer_1-2-2" data-name="Layer 1-2"><path class="cls-1" d="M26.59,0h38c.49.09,1,.2,1.47.27,1.87.29,3.78.43,5.61.87C81,3.37,87.14,9,89.74,18.36A44.77,44.77,0,0,1,91.16,30q.11,14.43,0,28.86A54.66,54.66,0,0,1,90,71.68C87.78,81,82.12,87.14,72.78,89.74a44.35,44.35,0,0,1-11.64,1.42c-9.62.07-19.24.11-28.86,0a80.91,80.91,0,0,1-10.77-.78A24.07,24.07,0,0,1,7.57,83.7C3.64,79.8,1.64,75,.71,69.62.42,67.94.24,66.25,0,64.57v-38c.1-.55.21-1.1.3-1.66.27-1.8.43-3.63.83-5.4A24.18,24.18,0,0,1,7.25,7.78C11.18,3.72,16.1,1.65,21.56.71,23.23.42,24.91.23,26.59,0ZM82.87,45H83V34.56a71.75,71.75,0,0,0-.79-12.85c-1.29-6.79-5.09-11.39-12-12.88a39.53,39.53,0,0,0-7.88-1q-14.11-.18-28.25-.08a78.06,78.06,0,0,0-11.33.77c-7,1.09-11.49,5.13-13.14,12.16a45.43,45.43,0,0,0-1,10c0,8.2,0,16.43,0,24.64A70.67,70.67,0,0,0,9.37,68c1.27,7,5.21,11.55,12.26,13a39,39,0,0,0,7.69.89q14.15.21,28.28.11a75.36,75.36,0,0,0,11.33-.79c6.81-1.09,11.38-5,12.92-11.88a41.75,41.75,0,0,0,1-7.87C83,56,82.87,50.5,82.87,45Z"/><path class="cls-1" d="M45.68,21.7A23.56,23.56,0,1,1,22,45.14h0A23.59,23.59,0,0,1,45.68,21.7ZM61.05,45.38A15.06,15.06,0,1,0,45.78,60.33,15.07,15.07,0,0,0,61.05,45.38h0Z"/><path class="cls-1" d="M70.54,26.43a5.46,5.46,0,0,1-5.41-6.65,5.36,5.36,0,0,1,3.46-3.85,5.64,5.64,0,0,1,7.64,5A5.39,5.39,0,0,1,71,26.44Z"/></g></g></g></svg>