<svg xmlns="http://www.w3.org/2000/svg" viewBox="0 0 93.99 94"><defs><style>.cls-1{fill:#2c2c2c;}</style></defs><title>Asset 10</title><g id="Layer_2" data-name="Layer 2"><g id="Layer_1-2" data-name="Layer 1"><g id="Layer_1-2-2" data-name="Layer 1-2"><path class="cls-1" d="M0,77.14V16.84A7.12,7.12,0,0,0,.36,16C2.15,7.88,7.07,2.78,15,.54,15.64.37,16.24.18,16.84,0h60.3a2.78,2.78,0,0,0,.67.33A19.62,19.62,0,0,1,94,20c-.06,18,0,36,0,54,0,11.39-8.54,19.87-20,20H19.63A19.57,19.57,0,0,1,.48,78.77C.35,78.22.16,77.68,0,77.14ZM77.94,74c0-.52.06-.9.06-1.29V47.21a22.76,22.76,0,0,0-.43-4.28c-1-4.81-3.38-8.63-8.08-10.73A16.32,16.32,0,0,0,51.4,36c-.37.42-.73.85-1.4,1.64V31H39V73H51V52.7A9.18,9.18,0,0,1,51.93,47c1.6-3,4-4.59,7.48-4.33a6.76,6.76,0,0,1,6.24,5.12,16.59,16.59,0,0,1,.74,5c.09,6.4,0,12.81.61,19.21v2ZM20,31V74H31V31ZM32,19.08a6.82,6.82,0,1,0-13.62-.59c0,.17,0,.35,0,.52A6.82,6.82,0,0,0,32,19.6,4.51,4.51,0,0,0,32,19.08Z"/></g></g></g></svg>