<svg xmlns="http://www.w3.org/2000/svg" viewBox="0 0 383.97 512"><defs><style>.cls-1{fill:#fdcf0b;}</style></defs><title>Asset 14</title><g id="Layer_2" data-name="Layer 2"><g id="Layer_1-2" data-name="Layer 1"><path class="cls-1" d="M184.12,512a24.49,24.49,0,0,0-2.66-1q-22.92-5.89-33.08-27.26c-.49-1.05-.95-2.12-1.52-3.37-1.08-.09-2.22-.2-3.35-.27-9-.56-15.6-7.47-15.49-16.29a15.81,15.81,0,0,1,15.88-15.87c15.15-.14,30.29-.06,45.44-.06l50.44,0c7.28,0,12.45,3.47,15.25,10,4.3,10.06-2.81,21.28-13.78,22.12-1.14.09-2.3,0-3.6,0-.66,1.31-1.26,2.46-1.82,3.63-7,14.57-18.22,23.84-34.05,27.43a7.71,7.71,0,0,0-1.66.86Z"/><path class="cls-1" d="M208.12,0V33.85c-10.69-2-21-2.33-31.92.16-.35-5.93-.17-11.51-.17-17.08s.05-11.29.09-16.93Z"/><path class="cls-1" d="M256.07,383.87H128.43c-.67-5.64-1.17-11.08-2-16.46a151.16,151.16,0,0,0-12.2-40c-7.3-16.05-15-31.91-22.67-47.79-7.88-16.34-15.74-32.68-21.24-50-4.88-15.38-7.41-31.09-6.08-47.23,2-25,10.42-47.7,25.67-67.66,19.71-25.8,45.55-42.42,77.4-48.42,40.92-7.71,77.65,2.21,109.26,29.5,21.93,18.93,35.43,43,41.29,71.29,4.38,21.17,2.66,42-4,62.54-4.6,14.12-10.63,27.63-17.09,41-7.63,15.72-15.55,31.3-23,47.11-6.58,14-12.2,28.46-15,43.78-1.14,6.2-1.68,12.51-2.47,18.78C256.17,381.39,256.15,382.53,256.07,383.87Zm-99.68-32.29h71.25a233.29,233.29,0,0,1,16.48-46.74c7.61-16.09,15.62-32,23.4-48,5.67-11.67,11.06-23.46,15.18-35.79,4.76-14.27,6.72-28.82,4.18-43.76-3-17.42-9.8-33.1-21.28-46.63-18.6-21.91-42.39-33.34-71-34.44a89.19,89.19,0,0,0-49.25,12.23c-31.35,18.37-47.61,46-49.06,82.26-.49,12.48,2.93,24.37,7.12,36,5.37,14.89,12.42,29,19.37,43.23,5.49,11.2,11.07,22.36,16.35,33.67A249.45,249.45,0,0,1,156.39,351.58Z"/><path class="cls-1" d="M191.6,432.12c-15.64,0-31.28,0-46.93,0-7.79,0-13.58-4.19-15.87-11.25A15.92,15.92,0,0,1,143.21,400c4.48-.21,9-.07,13.48-.07q40.19,0,80.36,0a28.63,28.63,0,0,1,7.86.83,15.84,15.84,0,0,1,11.2,17.77,16.14,16.14,0,0,1-15.59,13.56c-16.31.11-32.62,0-48.92,0Z"/><path class="cls-1" d="M62.36,98.42,46.19,126.19c-9.46-4.92-18.65-10.74-28.53-16.23,5.43-9.48,10.62-18.51,16.08-28Z"/><path class="cls-1" d="M98.55,62.23,82.06,33.65,109.26,18c2.63,2.37,13.55,20.67,16.86,28.2Z"/><path class="cls-1" d="M302.14,33.68l-16.6,28.73c-4.65-2.89-9-5.75-13.55-8.38s-9.27-5.07-14.32-7.8c5.49-9.53,10.85-18.85,16.5-28.65C283.69,22.86,292.76,28.2,302.14,33.68Z"/><path class="cls-1" d="M350.65,82.3l15.93,27.61-28.45,16.42L322.29,99.18C324,96.91,342.46,85.84,350.65,82.3Z"/><path class="cls-1" d="M350,207.83c2.68-10.84,2.32-21.05.22-31.87,11.43-.16,22.47-.05,33.78,0v31.9Z"/><path class="cls-1" d="M0,176.11H33.92c-1.88,10.59-2.37,20.94.13,31.18-3.74,1-26.13,1.25-34,.39C-.08,197.37.06,187,0,176.11Z"/><path class="cls-1" d="M324.2,286.87l13.22-29.59,29.15,16.79c-5.43,9.43-10.63,18.45-16.11,27.94Z"/><path class="cls-1" d="M17.71,274.21c9.46-6,19.08-11.1,28.93-16.84,4.44,10,8.72,19.61,13.18,29.62L33.76,302Z"/></g></g></svg>