<svg xmlns="http://www.w3.org/2000/svg" viewBox="0 0 94.12 94.12"><defs><style>.cls-1{fill:#fdcf0b;}</style></defs><title>Asset 10</title><g id="Layer_2" data-name="Layer 2"><g id="Layer_1-2" data-name="Layer 1"><path class="cls-1" d="M0,77.25V16.86A5.81,5.81,0,0,0,.36,16C2.15,7.89,7.08,2.78,15.05.54,15.66.37,16.26.18,16.86,0H77.25a2.61,2.61,0,0,0,.67.33,19.65,19.65,0,0,1,16.2,19.73c-.06,18,0,36.05,0,54.07,0,11.41-8.55,19.9-20,20-4.44,0-8.88,0-13.32,0-13.71,0-27.43,0-41.14,0A19.6,19.6,0,0,1,.48,78.88C.35,78.33.16,77.79,0,77.25Zm78.36-2.84c0-.52.06-.9.06-1.29,0-8.49,0-17,0-25.47A23.61,23.61,0,0,0,78,43.37c-1-4.81-3.32-8.63-7.94-10.73a15.81,15.81,0,0,0-17.77,3.8c-.37.42-.72.85-1.38,1.64V31.52H39.31V74.38H51V72.13q0-9.51,0-19a11.62,11.62,0,0,1,1.19-5.69c1.6-3,4-4.59,7.48-4.33a6.77,6.77,0,0,1,6.24,5.12,16.8,16.8,0,0,1,.74,5c.09,6.4,0,12.81,0,19.21v2Zm-58.6-43v43H31.25v-43ZM32.3,19.51a6.82,6.82,0,1,0-13.63-.07,6.82,6.82,0,1,0,13.63.07Z"/></g></g></svg>