<svg xmlns="http://www.w3.org/2000/svg" viewBox="0 0 187.24 187.38"><defs><style>.cls-1{fill:#fdcf0b;}</style></defs><title>Asset 3</title><g id="Layer_2" data-name="Layer 2"><g id="Layer_1-2" data-name="Layer 1"><path class="cls-1" d="M52.94,175.33c-.69-.64-1.27-1.14-1.81-1.68q-18.74-18.72-37.49-37.41c-1.52-1.5-1.35-2.29.06-3.69q55.08-55,110.08-110c.53-.54,1.12-1,1.67-1.52l5.7,5.79L24,133.92c2,2.05,3.5,3.6,5.09,5,.26.23,1.15,0,1.58-.25a11.08,11.08,0,0,0,1.68-1.61L134.85,34.64c2.32-2.32,2.32-2.32,4.64,0,8.41,8.41,16.79,16.85,25.27,25.2,1.47,1.46,1.64,2.29.07,3.85q-55.1,55-110.09,110C54.21,174.24,53.62,174.72,52.94,175.33Z"/><path class="cls-1" d="M187.22,34.75a14.28,14.28,0,0,1-4.47,10.93c-3.14,3.23-6.4,6.36-9.54,9.59-1.07,1.11-1.82,1.3-3,.1q-19-19.11-38.11-38.12c-1.13-1.12-1.24-1.87,0-3C135.4,11,138.59,7.59,142,4.37a15.51,15.51,0,0,1,21.88.29c6.29,6.24,12.54,12.53,18.81,18.8A14.6,14.6,0,0,1,187.22,34.75Z"/><path class="cls-1" d="M0,187.38c2.47-16.31,4.83-31.93,7.16-47.31L47.3,180.22Z"/></g></g></svg>