<svg xmlns="http://www.w3.org/2000/svg" viewBox="0 0 191.73 184.92"><defs><style>.cls-1{fill:#fdcf0b;}</style></defs><title>Asset 1</title><g id="Layer_2" data-name="Layer 2"><g id="Layer_1-2" data-name="Layer 1"><path class="cls-1" d="M14.17,171H177.62c-.36-2.69-.55-5.28-1.08-7.81q-9-43.31-49.59-61.07a3.77,3.77,0,0,0-3.77.14A54.79,54.79,0,0,1,41.59,63C37,33.92,57.27,5.76,86.41.8a54.81,54.81,0,0,1,63.72,46c2.28,15.42-1.59,29.39-11.1,41.76-.65.84-1.33,1.66-2.13,2.66.68.39,1.25.75,1.85,1.07,28.7,15.07,46.09,38.49,51.72,70.45a113.4,113.4,0,0,1,1.25,14.87c.19,4.49-2.79,7.34-7.3,7.34H7.34c-4.52,0-7.41-2.83-7.34-7.33C.45,149,11.36,125.2,32.47,106c3.22-2.92,7.43-2.78,10.11.18s2.36,7.29-.93,10.24A82,82,0,0,0,14.81,165.5C14.52,167.24,14.4,169,14.17,171ZM95.88,13.83a41,41,0,1,0,41,40.93A41.1,41.1,0,0,0,95.88,13.83Z"/></g></g></svg>