<svg xmlns="http://www.w3.org/2000/svg" viewBox="0 0 84.69 69.58"><defs><style>.cls-1{fill:#2c2c2c;}</style></defs><title>Asset 11</title><g id="Layer_2" data-name="Layer 2"><g id="Layer_1-2" data-name="Layer 1"><g id="Layer_1-2-2" data-name="Layer 1-2"><path class="cls-1" d="M25.36,54.33c-7.93-.89-13.28-4.68-16.24-12.21h7.16C8.08,39,3.57,33.43,2.93,24.73l7.26,2,.26-.48a17.45,17.45,0,0,1-7.1-11.84A16.84,16.84,0,0,1,5.49,3.31c9.47,11,21.37,17.21,36,18.22a20.65,20.65,0,0,1,.69-10.08,17.5,17.5,0,0,1,28.07-7,2.49,2.49,0,0,0,2.84.69l9-3.23c-.12,2.06-1.09,3.4-7,9.28l9.3-2.48.34.35c-2.35,2.34-4.59,4.81-7.09,7a3.84,3.84,0,0,0-1.43,3.18c-.5,17.86-7.53,32.58-22.7,42.22C36.46,72.25,18.68,72,1,62.32c-.19-.11-.39-.31-1-.68A36.55,36.55,0,0,0,25.36,54.33Z"/></g></g></g></svg>