<svg xmlns="http://www.w3.org/2000/svg" viewBox="0 0 84.7 69.56"><defs><style>.cls-1{fill:#fdcf0b;}</style></defs><title>Asset 11</title><g id="Layer_2" data-name="Layer 2"><g id="Layer_1-2" data-name="Layer 1"><path class="cls-1" d="M25.36,54.32c-7.93-.89-13.28-4.68-16.24-12.21h7.16C8.08,39,3.57,33.42,2.93,24.72l7.26,2,.26-.48a17.48,17.48,0,0,1-7.1-11.84A16.8,16.8,0,0,1,5.49,3.3c9.47,11.05,21.37,17.21,36,18.22a20.58,20.58,0,0,1,.69-10.08,17.49,17.49,0,0,1,28.07-7,2.51,2.51,0,0,0,2.84.69L82.05,1.9c-.12,2.06-1.09,3.4-7,9.28l9.3-2.48.34.35c-2.35,2.34-4.59,4.81-7.09,7a3.82,3.82,0,0,0-1.43,3.18c-.5,17.86-7.53,32.58-22.7,42.22C36.46,72.24,18.68,72,1,62.31.81,62.2.61,62,0,61.63,9.49,62.25,17.75,60,25.36,54.32Z"/></g></g></svg>