<svg xmlns="http://www.w3.org/2000/svg" viewBox="0 0 69.75 68.69"><defs><style>.cls-1{fill:#fdcf0b;}</style></defs><title>Asset 9</title><g id="Layer_2" data-name="Layer 2"><g id="Layer_1-2" data-name="Layer 1"><path class="cls-1" d="M35,47.36H66.33c3.27,0,3.37.11,3.38,3.35,0,5.08,0,10.17,0,15.25,0,2-.73,2.73-2.73,2.72q-32.13-.06-64.27,0C.73,68.7,0,68,0,66c.07-5.17,0-10.34,0-15.52,0-2.89.18-3.07,3.11-3.07Q19.08,47.34,35,47.36Zm7,15.25H27.89V65.9H42Zm-11.6-6.3H24.67v3.32h5.69Zm17,0H41.67v3.36h5.71Zm2.67,0,.16,3.43h5.64V56.26ZM33.46,50.11H27.8v3.21h5.66Zm8.49,0H36.33v3.31H42ZM13.24,59.73V56.3H7.67v3.43Zm2.84,0h5.59V56.32H16.08Zm34.47-9.69H44.83v3.28h5.72ZM25,50.05h-5.7v3.27H25ZM25,66V62.59H19.25V66ZM50.7,66l-.19-3.35H44.85V66ZM58.92,50H53.4v3.35h5.52ZM33,56.29l.21,3.44h5.51V56.29ZM16.36,62.58H10.81v3.36h5.55ZM10.77,50v3.34h5.74L16.37,50Zm42.6,15.92h5.56V62.58H53.37ZM2.73,53.3h5.2V50.07H2.73ZM67,50.06H61.85v3.27H67ZM7.93,62.74H2.6l.17,3.1H7.93ZM61.8,65.91h5.14V62.66H61.8Zm-3.1-6.23h3.36V56.32H58.7ZM2.77,59.57c1.82.72,2.14-.13,2.17-1.6s-.47-2.22-2.17-1.55ZM67.18,56.4c-2,.07-2.26.86-2.19,2.32,0,.64,2.22,1.31,2.24,1C67.28,59.08,67.23,57.44,67.18,56.4Z"/><path class="cls-1" d="M32.72,22.36c0-6.45.06-12.89,0-19.33,0-2.23.69-3,3-3Q51.18.14,66.7,0c2.21,0,3.06.69,3,3-.08,12.89,0,25.78,0,38.67,0,2.72-.27,3-3,3-10.35,0-20.7,0-31,0-2.23,0-3.06-.72-3-3C32.79,35.25,32.72,28.81,32.72,22.36ZM66.94,41.9V8.56H35.47V41.9ZM67,2.79H35.45V5.64H67Z"/><path class="cls-1" d="M29,22.44Q29,32,29,41.5c0,3-.16,3.14-3,3.14q-11.43,0-22.87,0c-2.72,0-3-.27-3-2.94C0,28.81.07,15.92,0,3,0,.82.7,0,3,0Q14.56.15,26.13,0C28.27,0,29,.71,29,2.83,28.89,9.37,29,15.9,29,22.44Zm-2.7,19.5V2.84H2.82v39.1Z"/><path class="cls-1" d="M62,24.6a49.26,49.26,0,0,1-4.53-3.82c-.45-.48-.28-1.53-.4-2.32.71.18,1.59.17,2.09.6,1.44,1.24,2.71,2.68,4.08,4,1.06,1,1.14,2,.06,3-1.36,1.33-2.62,2.78-4.08,4-.54.45-1.51.37-2.29.54.21-.8.18-1.81.67-2.33A47.84,47.84,0,0,1,62,24.6Z"/><path class="cls-1" d="M40.81,24.67a39.3,39.3,0,0,1,3.91,3.52,6.64,6.64,0,0,1,.71,2.51c-.84-.27-1.94-.3-2.49-.85-6.22-6.38-6.31-4.06.31-10.79.45-.45,1.51-.32,2.28-.45-.16.72-.09,1.64-.52,2.12C43.88,22,42.54,23.08,40.81,24.67Z"/><path class="cls-1" d="M54,16.3c-1.12,4.39-2.11,8.42-3.24,12.42-.14.48-1,.76-1.53,1.14-.26-.53-.83-1.12-.73-1.56Q50,22,51.67,15.7c.11-.4,1.19-.94,1.41-.8C53.58,15.22,53.82,15.94,54,16.3Z"/><path class="cls-1" d="M14.52,20.71c-2.27,0-4.54.09-6.8-.06-.59,0-1.13-.81-1.7-1.24.53-.4,1.05-1.15,1.59-1.16q6.93-.13,13.87,0c.54,0,1.06.77,1.59,1.19-.58.42-1.15,1.18-1.75,1.22C19.06,20.8,16.79,20.71,14.52,20.71Z"/><path class="cls-1" d="M14.72,32.11c-2.27,0-4.54.09-6.8,0C7.27,32,6.66,31.35,6,31c.63-.47,1.25-1.34,1.9-1.36,4.44-.12,8.9-.11,13.34,0,.61,0,1.2.81,1.8,1.25-.61.42-1.19,1.16-1.82,1.21C19.09,32.21,16.9,32.11,14.72,32.11Z"/><path class="cls-1" d="M14.73,6.91c2.17,0,4.35-.09,6.51,0,.62,0,1.19.77,1.79,1.18-.59.4-1.18,1.14-1.77,1.16-4.53.09-9,.08-13.58,0-.55,0-1.09-.66-1.63-1C6.59,7.83,7.11,7,7.68,7c2.34-.15,4.7-.06,7.05-.06Z"/><path class="cls-1" d="M10.6,26.4a16.55,16.55,0,0,1-3.23-.06c-.51-.11-.88-.87-1.32-1.33.45-.34.9-1,1.37-1a63.33,63.33,0,0,1,6.75,0c.52,0,1,.76,1.49,1.17-.51.41-1,1.08-1.56,1.18a22.67,22.67,0,0,1-3.5.05Z"/><path class="cls-1" d="M10.69,15.1A17.46,17.46,0,0,1,7.45,15c-.54-.11-1-.84-1.42-1.29.43-.38.84-1.07,1.29-1.09,2.34-.11,4.7-.11,7,0,.45,0,.86.72,1.3,1.1-.4.44-.75,1.18-1.19,1.24a28,28,0,0,1-3.78.06Z"/><path class="cls-1" d="M11,35.22a34.48,34.48,0,0,1,3.53.21c.42.06.76.62,1.14,1-.38.42-.75,1.19-1.16,1.21-2.44.11-4.89.09-7.34,0-.38,0-1.08-.73-1-.94.15-.49.63-1.17,1-1.22a30.07,30.07,0,0,1,3.8-.06Z"/></g></g></svg>